<?xml version="1.0" encoding="UTF-8"?>
<svg width="137px" height="137px" viewBox="0 0 137 137" version="1.1" xmlns="http://www.w3.org/2000/svg" xmlns:xlink="http://www.w3.org/1999/xlink">
    <!-- Generator: Sketch 46.2 (44496) - http://www.bohemiancoding.com/sketch -->
    <title>facebook-icon</title>
    <desc>Created with Sketch.</desc>
    <defs></defs>
    <g id="Page-1" stroke="none" stroke-width="1" fill="none" fill-rule="evenodd">
        <g id="facebook-icon" fill-rule="nonzero">
            <path d="M129.439393,137 C133.614692,137 137,133.614204 137,129.438937 L137,7.56106334 C137,3.38425598 133.614179,0 129.439393,0 L7.56112,0 C3.38428134,0 0,3.38476929 0,7.56106334 L0,129.438423 C0,133.614204 3.38428134,136.999487 7.56112,136.999487 L129.439393,136.999487 L129.439393,137 Z" id="Shape" fill="#485A96"></path>
            <path d="M93.9458476,137 L93.9458476,84.0869828 L111.635619,84.0869828 L114.284087,63.4656707 L93.9453377,63.4656707 L93.9453377,50.2998742 C93.9453377,44.3295231 95.5964238,40.2610632 104.124146,40.2610632 L115,40.2559437 L115,21.8124633 C113.118945,21.5616082 106.662474,21 99.1520209,21 C83.4707822,21 72.7351531,30.6097976 72.7351531,48.258221 L72.7351531,63.4656707 L55,63.4656707 L55,84.0869828 L72.7351531,84.0869828 L72.7351531,136.999488 L93.9458476,136.999488 L93.9458476,137 Z" id="Shape" fill="#FFFFFF"></path>
        </g>
    </g>
</svg>