<?xml version="1.0" encoding="UTF-8"?>
<svg width="134px" height="137px" viewBox="0 0 134 137" version="1.1" xmlns="http://www.w3.org/2000/svg" xmlns:xlink="http://www.w3.org/1999/xlink">
    <!-- Generator: Sketch 46.2 (44496) - http://www.bohemiancoding.com/sketch -->
    <title>google-icon</title>
    <desc>Created with Sketch.</desc>
    <defs></defs>
    <g id="Page-1" stroke="none" stroke-width="1" fill="none" fill-rule="evenodd">
        <g id="google-icon" fill-rule="nonzero">
            <path d="M134,69.9195059 C134,64.3214551 133.541316,60.2363487 132.54864,56 L68,56 L68,81.2668497 L105.888596,81.2668497 C105.125,87.5460124 101,97.0023061 91.8331578,103.356568 L91.704663,104.202482 L112.11375,119.860231 L113.527719,120 C126.513596,108.122787 134,90.6475223 134,69.9195059" id="Shape" fill="#4285F4"></path>
            <path d="M67.8743931,137 C86.2726834,137 101.718207,130.905519 113,120.393393 L91.4970504,103.633964 C85.742887,107.671393 78.0198643,110.489926 67.8743931,110.489926 C49.8545288,110.489926 34.5603758,98.5304593 29.1084312,82 L28.3092999,82.0682708 L7.27507657,98.4464337 L7,99.215793 C18.205586,121.611764 41.2227617,137 67.8743931,137" id="Shape" fill="#34A853"></path>
            <path d="M29,81.7521724 C27.5799115,77.4783605 26.7580533,72.8988629 26.7580533,68.1673116 C26.7580533,63.4352342 27.5799115,58.8562627 28.9252856,54.5824508 L28.8876708,53.6722335 L7.86304437,37 L7.1751568,37.3340971 C2.61603383,46.645146 0,57.1010692 0,68.1673116 C0,79.233554 2.61603383,89.6889511 7.1751568,99 L29,81.7521724" id="Shape" fill="#FBBC05"></path>
            <path d="M68.1865525,26.5095484 C81.0476641,26.5095484 89.7231696,32.0704669 94.6700335,36.7176072 L114,17.8255037 C102.128366,6.77981476 86.6791878,0 68.1865525,0 C41.3982535,0 18.2630474,15.3877113 7,37.7836818 L29.1457283,55 C34.7017034,38.4695407 50.0742836,26.5095484 68.1865525,26.5095484" id="Shape" fill="#EB4335"></path>
        </g>
    </g>
</svg>